# xmcd CD database file
# Copyright (C) 1996 Ti Kan
#
# Track frame offsets:
# 	150
# 	17162
# 	35845
# 	49827
# 	68880
# 	87445
# 	104240
# 	119945
# 	134242
#
# Disc length: 2042 seconds
#
# Revision: 1
# Processed by: cddbd v1.4b41PL1 Copyright (c) Steve Scherf et al.
# Submitted via: DiscPlay 3.3.1
#
DISCID=9507f809
DTITLE=K.T. Oslin - 80's Ladies
DYEAR=1900
DGENRE=
TTITLE0=Wall of Tears
TTITLE1=I'll Always Come Back
TTITLE2=Younger Men
TTITLE3=80's Ladies
TTITLE4=Do Ya'
TTITLE5=Two Hearts
TTITLE6=Dr., Dr.
TTITLE7=Lonely But Only For You
TTITLE8=Old Pictures
EXTD=
EXTT0=
EXTT1=
EXTT2=
EXTT3=
EXTT4=
EXTT5=
EXTT6=
EXTT7=
EXTT8=
PLAYORDER=
